<svg
  xmlns="http://www.w3.org/2000/svg"
  viewBox="0 0 512 512"
  xmlns:xlink="http://www.w3.org/1999/xlink"
>
  <defs>
    <!-- Symbol #e (originally gradient-filled cloud) -->
    <symbol id="e" viewBox="0 0 350 222">
      <!-- Now white fill + black stroke -->
      <path
        fill="white"
        stroke="black"
        stroke-miterlimit="10"
        stroke-width="6"
        d="m291 107-2.5.1
           A83.9 83.9 0 00135.6 43
           A56 56 0 0051 91
           a56.6 56.6 0 00.8 9
           A60 60 0 0063 219
           l4-.2v.2h224
           a56 56 0 000-112Z"
      />
    </symbol>

    <!-- Symbol #f (three shapes), originally gradient-filled; now orange fill + black stroke -->
    <symbol id="f" viewBox="0 0 129 109">
      <path
        fill="blue"
        stroke="black"
        stroke-miterlimit="10"
        d="M8.5 28.5
           a8 8 0 01-8-8v-12
           a8 8 0 0116 0v12
           a8 8 0 01-8 8Z"
      />
      <path
        fill="blue"
        stroke="black"
        stroke-miterlimit="10"
        d="M64.5 108.5
           a8 8 0 01-8-8v-12
           a8 8 0 0116 0v12
           a8 8 0 01-8 8Z"
      />
      <path
        fill="blue"
        stroke="black"
        stroke-miterlimit="10"
        d="M120.5 74.5
           a8 8 0 01-8-8v-40
           a8 8 0 0116 0v40
           a8 8 0 01-8 8Z"
      />
    </symbol>
  </defs>

  <!-- Cloud usage (symbol #e) -->
  <use
    xlink:href="#e"
    width="350"
    height="222"
    transform="translate(81 145)"
  />

  <!-- Three shapes usage (symbol #f) -->
  <use
    xlink:href="#f"
    width="129"
    height="109"
    transform="translate(191.5 347.5)"
  />
</svg>
