<svg
  xmlns="http://www.w3.org/2000/svg"
  xmlns:xlink="http://www.w3.org/1999/xlink"
  viewBox="0 0 512 512"
>
  <defs>
    <linearGradient
      id="cloudGradient"
      x1="0"
      y1="0"
      x2="0"
      y2="1"
      gradientUnits="objectBoundingBox"
    >
      <stop offset="0" stop-color="white" />
      <stop offset=".9" stop-color="#6b7280" />
      <stop offset="1" stop-color="#4b5563" />
    </linearGradient>
    <symbol id="h" viewBox="0 0 196 196">
      <circle
        cx="98"
        cy="98"
        r="40"
        fill="yellow"
        stroke="black"
        stroke-miterlimit="10"
        stroke-width="4"
      />
      <path
        fill="none"
        stroke="yellow"
        stroke-linecap="round"
        stroke-miterlimit="10"
        stroke-width="12"
        d="M98 31.4V6m0 184v-25.4M145.1 51l18-17.9M33 163l18-17.9M51 51 33 33m130.1 130.1-18-18M6 98h25.4M190 98h-25.4"
      />
    </symbol>
    <symbol id="j" viewBox="0 0 210.3 126.1">
      <path
        fill="url(#cloudGradient)"
        stroke="black"
        stroke-miterlimit="10"
        stroke-width="6"
        d="M.5 93.2a32.4 32.4 0 0032.4 32.4h129.8v-.1l2.3.1a34.8 34.8 0 006.5-68.9 32.4 32.4 0 00-48.5-33 48.6 48.6 0 00-88.6 37.1h-1.5A32.4 32.4 0 00.5 93.1Z"
      />
    </symbol>
    <symbol id="k" viewBox="0 0 350 223">
      <path
        fill="url(#cloudGradient)"
        stroke="black"
        stroke-miterlimit="10"
        stroke-width="6"
        d="m291 107-2.5.1A83.9 83.9 0 00135.6 43 56 56 0 0051 91a56.6 56.6 0 00.8 9A60 60 0 0063 219l4-.2v.2h224a56 56 0 000-112Z"
      />
    </symbol>
    <symbol id="i" viewBox="0 0 398 222">
      <use
        xlink:href="#j"
        width="200.3"
        height="126.1"
        transform="translate(198 27)"
      />
      <use xlink:href="#k" width="350" height="222" />
    </symbol>
    <symbol id="g" viewBox="0 0 410.8 258">
      <use xlink:href="#h" width="196" height="196" />
      <use
        xlink:href="#i"
        width="398"
        height="222"
        transform="translate(12.84 36)"
      />
    </symbol>
    <symbol id="l" viewBox="0 0 129 110">
      <path
        fill="blue"
        d="M-41.5 86.5
           a8 8 0 01-8-8v-40
           a8 8 0 0116 0v40
           a8 8 0 01-8 8Z"
      />
      <path
        fill="blue"
        d="M8.5 106.5
           a8 8 0 01-8-8v-40
           a8 8 0 0116 0v40
           a8 8 0 01-8 8Z"
      />
      <path
        fill="blue"
        d="M64.5 86.5
           a8 8 0 01-8-8v-40
           a8 8 0 0116 0v40
           a8 8 0 01-8 8Z"
      />
      <path
        fill="blue"
        d="M120.5 106.5
           a8 8 0 01-8-8v-40
           a8 8 0 0116 0v40
           a8 8 0 01-8 8Z"
      />
      <path
        fill="blue"
        d="M168.5 86.5
           a8 8 0 01-8-8v-40
           a8 8 0 0116 0v40
           a8 8 0 01-8 8Z"
      />
    </symbol>
  </defs>
  <use
    xlink:href="#g"
    width="410.8"
    height="258"
    transform="translate(56 109)"
  />
  <use
    xlink:href="#l"
    width="229"
    height="110"
    transform="translate(140 343.5)"
  />
</svg>
