<svg
  xmlns="http://www.w3.org/2000/svg"
  viewBox="0 0 512 512"
  xmlns:xlink="http://www.w3.org/1999/xlink"
>
  <defs>
    <!-- Keep clipPath, but no need for the gradient anymore -->
    <clipPath id="b">
      <path
        fill="none"
        d="M512 306H304l-35.9-31.4a18.4 18.4 0 00-24.2 0L208 306H0V0h512Z"
      />
    </clipPath>
    
    <!-- Symbol that was originally using a gradient fill + light blue stroke,
         now simplified to solid blue fill + black stroke -->
    <symbol id="c" viewBox="0 0 270 270">
      <path
        fill="blue"
        stroke="black"
        stroke-linecap="round"
        stroke-linejoin="round"
        stroke-width="6"
        d="M252.3 168.6A133.4 133.4 0 01118 36.2
           A130.5 130.5 0 01122.5 3
           A133 133 0 003 134.6
           C3 207.7 63 267 137.2 267
           c62.5 0 114.8-42.2 129.8-99.2
           a135.6 135.6 0 01-14.8.8Z"
      />
    </symbol>
  </defs>

  <!-- Path was stroke="#374151", now black -->
  <path
    fill="none"
    stroke="black"
    stroke-linecap="round"
    stroke-linejoin="round"
    stroke-width="18"
    d="M128 332h88l40-36 40 36h88"
  />

  <!-- Group with clipping -->
  <g clip-path="url(#b)">
    <!-- Use the symbol with the now solid-blue fill + black stroke -->
    <use
      xlink:href="#c"
      width="270"
      height="270"
      transform="translate(121 121)"
    />
  </g>
</svg>
