<svg
  xmlns="http://www.w3.org/2000/svg"
  viewBox="0 0 512 512"
  xmlns:xlink="http://www.w3.org/1999/xlink"
>
  <defs>
    <!-- Smaller cloud (#g), originally gradient fill + gray stroke -->
    <symbol id="g" viewBox="0 0 210.3 126.1">
      <path
        fill="white"
        stroke="black"
        stroke-miterlimit="10"
        stroke-width="6"
        d="M.5 93.2
           a32.4 32.4 0 0032.4 32.4
           h129.8v-.1l2.3.1
           a34.8 34.8 0 006.5-68.9
           32.4 32.4 0 00-48.5-33
           48.6 48.6 0 00-88.6 37.1
           h-1.5A32.4 32.4 0 00.5 93.1Z"
      />
    </symbol>

    <!-- Larger cloud (#h), originally gradient fill -->
    <symbol id="h" viewBox="0 0 350 222">
      <path
        fill="white"
        stroke="black"
        stroke-miterlimit="10"
        stroke-width="6"
        d="m291 107-2.5.1
           A83.9 83.9 0 00135.6 43
           A56 56 0 0051 91
           a56.6 56.6 0 00.8 9
           A60 60 0 0063 219
           l4-.2v.2h224
           a56 56 0 000-112Z"
      />
    </symbol>

    <!-- Combined clouds (#f) uses #g (small cloud) + #h (big cloud) -->
    <symbol id="f" viewBox="0 0 398 222">
      <!-- Smaller cloud, positioned -->
      <use
        xlink:href="#g"
        width="200.3"
        height="126.1"
        transform="translate(198 27)"
      />
      <!-- Larger cloud -->
      <use
        xlink:href="#h"
        width="350"
        height="222"
      />
    </symbol>

    <!-- Three small shapes (#i), originally gradient-filled, now solid blue fill + black stroke -->
    <symbol id="i" viewBox="0 0 129 109">
      <path
        fill="blue"
        stroke="black"
        stroke-miterlimit="10"
        d="M8.5 28.5
           a8 8 0 01-8-8v-12
           a8 8 0 0116 0v12
           a8 8 0 01-8 8Z"
      />
      <path
        fill="blue"
        stroke="black"
        stroke-miterlimit="10"
        d="M64.5 108.5
           a8 8 0 01-8-8v-12
           a8 8 0 0116 0v12
           a8 8 0 01-8 8Z"
      />
      <path
        fill="blue"
        stroke="black"
        stroke-miterlimit="10"
        d="M120.5 58.5
           a8 8 0 01-8-8v-12
           a8 8 0 0116 0v12
           a8 8 0 01-8 8Z"
      />
    </symbol>
  </defs>

  <!-- Use the combined clouds (#f), same position as original -->
  <use
    xlink:href="#f"
    width="398"
    height="222"
    transform="translate(68.84 145)"
  />

  <!-- Three small shapes (#i), same position as original -->
  <use
    xlink:href="#i"
    width="129"
    height="109"
    transform="translate(191.5 347.5)"
  />
</svg>
