<svg
  xmlns="http://www.w3.org/2000/svg"
  viewBox="0 0 512 512"
  xmlns:xlink="http://www.w3.org/1999/xlink"
>
  <defs>
    <!-- Symbol #d: Smaller cloud -->
    <symbol id="d" viewBox="0 0 200.3 126.1">
      <!-- Originally gradient fill + gray stroke, now white fill + black stroke -->
      <path
        fill="white"
        stroke="black"
        stroke-miterlimit="10"
        d="M.5 93.2
           a32.4 32.4 0 0032.4 32.4
           h129.8v-.1l2.3.1
           a34.8 34.8 0 006.5-68.9
           32.4 32.4 0 00-48.5-33
           48.6 48.6 0 00-88.6 37.1
           h-1.5A32.4 32.4 0 00.5 93.1Z"
      />
    </symbol>

    <!-- Symbol #e: Larger cloud -->
    <symbol id="e" viewBox="0 0 350 222">
      <!-- Originally gradient fill, now white fill + black stroke -->
      <path
        fill="white"
        stroke="black"
        stroke-miterlimit="10"
        stroke-width="6"
        d="m291 107-2.5.1
           A83.9 83.9 0 00135.6 43
           A56 56 0 0051 91
           a56.6 56.6 0 00.8 9
           A60 60 0 0063 219
           l4-.2v.2h224
           a56 56 0 000-112Z"
      />
    </symbol>

    <!-- Symbol #c: Combined smaller cloud (#d) + larger cloud (#e) -->
    <symbol id="c" viewBox="0 0 398 222">
      <use
        xlink:href="#d"
        width="200.3"
        height="126.1"
        transform="translate(198 27)"
      />
      <use
        xlink:href="#e"
        width="350"
        height="222"
      />
    </symbol>
  </defs>

  <!-- Use the combined cloud (#c), positioned as in the original -->
  <use
    xlink:href="#c"
    width="398"
    height="222"
    transform="translate(68.84 145)"
  />
</svg>
