<svg
  xmlns="http://www.w3.org/2000/svg"
  viewBox="0 0 512 512"
  xmlns:xlink="http://www.w3.org/1999/xlink"
>
  <defs>
    <!-- Clip path remains unchanged -->
    <clipPath id="b">
      <path
        fill="none"
        d="M512 306H296a21.5 21.5 0 00-14 5.3L256 334l-26-22.7a21.5 21.5 0 00-14-5.3H0V0h512Z"
      />
    </clipPath>

    <!-- Symbol #c (originally sun with gradient fill) -->
    <symbol id="c" viewBox="0 0 384 384">
      <!-- Sun circle: now solid orange fill + black stroke -->
      <circle
        cx="192"
        cy="192"
        r="84"
        fill="yellow"
        stroke="red"
        stroke-miterlimit="10"
        stroke-width="12"
      />
      <!-- Sun rays: was stroke="#fbbf24", now black -->
      <path
        fill="none"
        stroke="yellow"
        stroke-linecap="round"
        stroke-miterlimit="10"
        stroke-width="24"
        d="M192 61.7V12
           m0 360v-49.7
           m92.2-222.5 35-35
           M64.8 319.2l35.1-35.1
           m0-184.4-35-35
           m254.5 254.5-35.1-35.1
           M61.7 192H12
           m360 0h-49.7"
      />
    </symbol>
  </defs>

  <!-- Group with clipping -->
  <g clip-path="url(#b)">
    <!-- Sun symbol usage, positioned as in the original -->
    <use
      xlink:href="#c"
      width="384"
      height="384"
      transform="translate(64 100)"
    />
  </g>

  <!-- Path was stroke="#374151", now black -->
  <path
    fill="none"
    stroke="green"
    stroke-linecap="round"
    stroke-linejoin="round"
    stroke-width="18"
    d="M128 332h88l40 36 40-36h88"
  />
</svg>
