<svg
  xmlns="http://www.w3.org/2000/svg"
  viewBox="0 0 512 512"
  xmlns:xlink="http://www.w3.org/1999/xlink"
>
  <!-- First path: was stroke="url(#c)", now solid black stroke -->
  <symbol id="umberella" viewBox="23 87 430 370">
  <path
    fill="none"
    stroke="black"
    stroke-linecap="round"
    stroke-linejoin="round"
    stroke-width="12"
    d="M220 360a24 24 0 11-34-34l1.8-1.8L343 169"
  />

  <!-- Second path: was fill="url(#d)" stroke="#ef4444", now fill="red" stroke="black" -->
  <path
    fill="red"
    stroke="black"
    stroke-miterlimit="10"
    stroke-width="6"
    d="M354.3 327.4c37.5-37.5 29.9-105.8-17-152.7
       s-115.3-54.5-152.8-17l13.2 4.9
       a71.2 71.2 0 0141 41.7l4 11.5
       7.3 2.4a70.9 70.9 0 0143.8 43.8
       l2.3 7.2 11.6 4a71.1 71.1 0 0141.7 41Z"
  />

  <!-- Third path: was stroke="#ef4444", now stroke="black" -->
  <path
    fill="none"
    stroke="black"
    stroke-linecap="round"
    stroke-linejoin="round"
    stroke-width="6"
    d="M296.1 269.3
       c42.7-33.2 41.2-94.6 41.2-94.6
       s-61.4-1.5-94.6 41.1"
  />
  </symbol>

  <!-- Symbol usage (#e) (two arcs), originally gradient strokes, now black -->
  <symbol id="arc-pair" viewBox="50 0 258 396">
    <path
      fill="none"
      stroke="#6f6fe8"
      stroke-linecap="round"
      stroke-miterlimit="10"
      stroke-width="12"
      d="M105.2 10.8 A15.6 15.6 0 11116.4 37 H56"
    transform="translate(-50 77)"
    />
    <path
      fill="none"
      stroke="#6f6fe8"
      stroke-linecap="round"
      stroke-miterlimit="10"
      stroke-width="12"
      d="M105.2 10.8A15.6 15.6 0 11116.4 37H6"
    transform="translate(0 100)"
    />
    <path
      fill="none"
      stroke="#6f6fe8"
      stroke-linecap="round"
      stroke-miterlimit="10"
      stroke-width="12"
      d="M60.7 85.2A15.6 15.6 0 1071.9 59H6.6"
    transform="translate(0 100)"
    />
  </symbol>

  <!-- Use the arc symbol -->
  <use
    xlink:href="#arc-pair"
    transform="translate(62.5 31)"
  />
  <use
    xlink:href="#umberella"
    width="550"
    transform="translate(-5 -15)"
  />
  <!-- Text "km/h", originally fill="#374251", now fill="black" -->
  <!-- <text
    x="252"
    y="452"
    fill="black"
    font-size="106.667px"
    font-weight="bold"
    font-family="Roboto"
    text-anchor="middle"
    stroke="white"
    stroke-width="15"
    paint-order="stroke"
  >
    km/h
  </text> -->
</svg>
