<svg
  xmlns="http://www.w3.org/2000/svg"
  viewBox="0 0 512 512"
  xmlns:xlink="http://www.w3.org/1999/xlink"
>
  <!-- First path: was stroke="url(#c)", now solid black stroke -->
  <!-- <g transform="rotate(-22 256 256)"> -->
   <g transform="rotate(-22 290 276)">
    <path
      fill="none"
      stroke="black"
      stroke-linecap="round"
      stroke-linejoin="round"
      stroke-width="12"
      d="M220 360a24 24 0 11-34-34l1.8-1.8L343 169"
    />

    <!-- Second path: was fill="url(#d)" and stroke="#ef4444", now fill="red" and stroke="black" -->
    <path
      fill="red"
      stroke="black"
      stroke-miterlimit="10"
      stroke-width="4"
      d="M442.8 240c-37.5 37.4-105.9 29.8-152.7-17s-54.5-115.3-17-152.8l4.9 13.1
        a71.2 71.2 0 0041.7 41l11.6 4 2.3 7.3
        a70.8 70.8 0 0043.8 43.8l7.3 2.4 4 11.5
        a71.1 71.1 0 0041 41.7Z"
    />

    <!-- Third path: was stroke="#ef4444", now stroke="black" -->
    <path
      fill="none"
      stroke="black"
      stroke-linecap="round"
      stroke-linejoin="round"
      stroke-width="2"
      d="M384.6 181.8c-33.1 42.6-94.5 41.1-94.5 41.1
        s-1.5-61.4 41.1-94.6"
    />
   </g>
  <!-- Symbol #e (two arcs), originally using gradients #a and #b -->
  <symbol id="e" viewBox="0 0 138 96">
    <path
      fill="none"
      stroke="#6f6fe8"
      stroke-linecap="round"
      stroke-miterlimit="10"
      stroke-width="12"
      d="M105.2 10.8A15.6 15.6 0 11116.4 37H6"
    />
    <path
      fill="none"
      stroke="#6f6fe8"
      stroke-linecap="round"
      stroke-miterlimit="10"
      stroke-width="12"
      d="M60.7 85.2A15.6 15.6 0 1071.9 59H6.6"
    />
  </symbol>

  <!-- Use the symbol #e (two arcs), originally gradient strokes, now black -->
  <use
    xlink:href="#e"
    width="138"
    height="96"
    transform="translate(62.5 201)"
  />

  <!-- Text "km h", originally fill="#374251", now fill="black" -->
  <text
    x="180"
    y="373"
    fill="black"
    font-size="106.667px"
    font-weight="bold"
    font-family="sans-serif"
    text-anchor="middle"
  >
    km h
  </text>
</svg>
