<svg viewBox="0 0 800 480" xmlns="http://www.w3.org/2000/svg"><rect width="800" height="480" fill="white"/><rect x="10" y="10" width="380" height="215" fill="white" stroke="black" stroke-width="2"/><text x="15" y="30" text-anchor="start" font-size="14" fill="black">$87318.00</text><text x="200" y="30" text-anchor="middle" font-size="18" font-weight="bold" fill="black">BTC</text><text x="385" y="30" text-anchor="end" font-size="12" fill="red">-35000.40 (-28.6%)</text><line x1="50" y1="45" x2="380" y2="45" stroke="#cccccc" stroke-width="1"/><line x1="50" y1="85" x2="380" y2="85" stroke="#cccccc" stroke-width="1"/><line x1="50" y1="125" x2="380" y2="125" stroke="#cccccc" stroke-width="1"/><line x1="50" y1="165" x2="380" y2="165" stroke="#cccccc" stroke-width="1"/><line x1="50" y1="205" x2="380" y2="205" stroke="#cccccc" stroke-width="1"/><line x1="51" y1="54" x2="51" y2="70" stroke="#00AA00" stroke-width="1"/><rect x="50" y="59" width="3" height="6" fill="#00AA00" stroke="#00AA00" stroke-width="1"/><line x1="56" y1="57" x2="56" y2="62" stroke="#00AA00" stroke-width="1"/><rect x="55" y="59" width="3" height="1" fill="#00AA00" stroke="#00AA00" stroke-width="1"/><line x1="62" y1="47" x2="62" y2="60" stroke="#00AA00" stroke-width="1"/><rect x="61" y="55" width="3" height="4" fill="#00AA00" stroke="#00AA00" stroke-width="1"/><line x1="67" y1="45" x2="67" y2="57" stroke="#00AA00" stroke-width="1"/><rect x="66" y="51" width="3" height="4" fill="#00AA00" stroke="#00AA00" stroke-width="1"/><line x1="73" y1="49" x2="73" y2="65" stroke="#CC0000" stroke-width="1"/><rect x="72" y="51" width="3" height="12" fill="#CC0000" stroke="#CC0000" stroke-width="1"/><line x1="78" y1="53" x2="78" y2="64" stroke="#00AA00" stroke-width="1"/><rect x="77" y="56" width="3" height="7" fill="#00AA00" stroke="#00AA00" stroke-width="1"/><line x1="84" y1="54" x2="84" y2="69" stroke="#CC0000" stroke-width="1"/><rect x="83" y="56" width="3" height="6" fill="#CC0000" stroke="#CC0000" stroke-width="1"/><line x1="89" y1="58" x2="89" y2="113" stroke="#CC0000" stroke-width="1"/><rect x="88" y="62" width="3" height="30" fill="#CC0000" stroke="#CC0000" stroke-width="1"/><line x1="95" y1="90" x2="95" y2="104" stroke="#CC0000" stroke-width="1"/><rect x="94" y="92" width="3" height="8" fill="#CC0000" stroke="#CC0000" stroke-width="1"/><line x1="100" y1="82" x2="100" y2="104" stroke="#00AA00" stroke-width="1"/><rect x="99" y="85" width="3" height="15" fill="#00AA00" stroke="#00AA00" stroke-width="1"/><line x1="106" y1="81" x2="106" y2="90" stroke="#00AA00" stroke-width="1"/><rect x="105" y="84" width="3" height="1" fill="#00AA00" stroke="#00AA00" stroke-width="1"/><line x1="111" y1="83" x2="111" y2="103" stroke="#CC0000" stroke-width="1"/><rect x="110" y="84" width="3" height="8" fill="#CC0000" stroke="#CC0000" stroke-width="1"/><line x1="117" y1="90" x2="117" y2="102" stroke="#CC0000" stroke-width="1"/><rect x="116" y="92" width="3" height="8" fill="#CC0000" stroke="#CC0000" stroke-width="1"/><line x1="122" y1="95" x2="122" y2="111" stroke="#CC0000" stroke-width="1"/><rect x="121" y="100" width="3" height="9" fill="#CC0000" stroke="#CC0000" stroke-width="1"/><line x1="128" y1="105" x2="128" y2="125" stroke="#CC0000" stroke-width="1"/><rect x="127" y="109" width="3" height="6" fill="#CC0000" stroke="#CC0000" stroke-width="1"/><line x1="133" y1="111" x2="133" y2="115" stroke="#00AA00" stroke-width="1"/><rect x="132" y="112" width="3" height="3" fill="#00AA00" stroke="#00AA00" stroke-width="1"/><line x1="139" y1="104" x2="139" y2="116" stroke="#00AA00" stroke-width="1"/><rect x="138" y="107" width="3" height="5" fill="#00AA00" stroke="#00AA00" stroke-width="1"/><line x1="144" y1="96" x2="144" y2="111" stroke="#00AA00" stroke-width="1"/><rect x="143" y="100" width="3" height="7" fill="#00AA00" stroke="#00AA00" stroke-width="1"/><line x1="150" y1="88" x2="150" y2="111" stroke="#CC0000" stroke-width="1"/><rect x="149" y="100" width="3" height="8" fill="#CC0000" stroke="#CC0000" stroke-width="1"/><line x1="155" y1="105" x2="155" y2="114" stroke="#CC0000" stroke-width="1"/><rect x="154" y="108" width="3" height="3" fill="#CC0000" stroke="#CC0000" stroke-width="1"/><line x1="161" y1="98" x2="161" y2="111" stroke="#00AA00" stroke-width="1"/><rect x="160" y="102" width="3" height="9" fill="#00AA00" stroke="#00AA00" stroke-width="1"/><line x1="166" y1="95" x2="166" y2="103" stroke="#00AA00" stroke-width="1"/><rect x="165" y="99" width="3" height="3" fill="#00AA00" stroke="#00AA00" stroke-width="1"/><line x1="172" y1="96" x2="172" y2="100" stroke="#00AA00" stroke-width="1"/><rect x="171" y="97" width="3" height="2" fill="#00AA00" stroke="#00AA00" stroke-width="1"/><line x1="177" y1="83" x2="177" y2="98" stroke="#00AA00" stroke-width="1"/><rect x="176" y="87" width="3" height="10" fill="#00AA00" stroke="#00AA00" stroke-width="1"/><line x1="183" y1="80" x2="183" y2="89" stroke="#CC0000" stroke-width="1"/><rect x="182" y="87" width="3" height="1" fill="#CC0000" stroke="#CC0000" stroke-width="1"/><line x1="188" y1="81" x2="188" y2="95" stroke="#CC0000" stroke-width="1"/><rect x="187" y="88" width="3" height="4" fill="#CC0000" stroke="#CC0000" stroke-width="1"/><line x1="194" y1="90" x2="194" y2="106" stroke="#CC0000" stroke-width="1"/><rect x="193" y="92" width="3" height="10" fill="#CC0000" stroke="#CC0000" stroke-width="1"/><line x1="199" y1="97" x2="199" y2="115" stroke="#CC0000" stroke-width="1"/><rect x="198" y="102" width="3" height="6" fill="#CC0000" stroke="#CC0000" stroke-width="1"/><line x1="205" y1="99" x2="205" y2="109" stroke="#00AA00" stroke-width="1"/><rect x="204" y="104" width="3" height="4" fill="#00AA00" stroke="#00AA00" stroke-width="1"/><line x1="210" y1="101" x2="210" y2="105" stroke="#00AA00" stroke-width="1"/><rect x="209" y="102" width="3" height="2" fill="#00AA00" stroke="#00AA00" stroke-width="1"/><line x1="216" y1="98" x2="216" y2="107" stroke="#00AA00" stroke-width="1"/><rect x="215" y="101" width="3" height="1" fill="#00AA00" stroke="#00AA00" stroke-width="1"/><line x1="221" y1="100" x2="221" y2="119" stroke="#CC0000" stroke-width="1"/><rect x="220" y="101" width="3" height="13" fill="#CC0000" stroke="#CC0000" stroke-width="1"/><line x1="227" y1="112" x2="227" y2="141" stroke="#CC0000" stroke-width="1"/><rect x="226" y="114" width="3" height="18" fill="#CC0000" stroke="#CC0000" stroke-width="1"/><line x1="232" y1="122" x2="232" y2="141" stroke="#00AA00" stroke-width="1"/><rect x="231" y="124" width="3" height="8" fill="#00AA00" stroke="#00AA00" stroke-width="1"/><line x1="238" y1="123" x2="238" y2="137" stroke="#CC0000" stroke-width="1"/><rect x="237" y="124" width="3" height="9" fill="#CC0000" stroke="#CC0000" stroke-width="1"/><line x1="243" y1="123" x2="243" y2="140" stroke="#00AA00" stroke-width="1"/><rect x="242" y="126" width="3" height="7" fill="#00AA00" stroke="#00AA00" stroke-width="1"/><line x1="249" y1="126" x2="249" y2="132" stroke="#CC0000" stroke-width="1"/><rect x="248" y="126" width="3" height="3" fill="#CC0000" stroke="#CC0000" stroke-width="1"/><line x1="254" y1="118" x2="254" y2="133" stroke="#00AA00" stroke-width="1"/><rect x="253" y="121" width="3" height="8" fill="#00AA00" stroke="#00AA00" stroke-width="1"/><line x1="260" y1="114" x2="260" y2="123" stroke="#00AA00" stroke-width="1"/><rect x="259" y="117" width="3" height="4" fill="#00AA00" stroke="#00AA00" stroke-width="1"/><line x1="265" y1="111" x2="265" y2="129" stroke="#CC0000" stroke-width="1"/><rect x="264" y="117" width="3" height="10" fill="#CC0000" stroke="#CC0000" stroke-width="1"/><line x1="271" y1="119" x2="271" y2="135" stroke="#CC0000" stroke-width="1"/><rect x="270" y="127" width="3" height="5" fill="#CC0000" stroke="#CC0000" stroke-width="1"/><line x1="276" y1="123" x2="276" y2="145" stroke="#CC0000" stroke-width="1"/><rect x="275" y="132" width="3" height="7" fill="#CC0000" stroke="#CC0000" stroke-width="1"/><line x1="282" y1="138" x2="282" y2="159" stroke="#CC0000" stroke-width="1"/><rect x="281" y="139" width="3" height="18" fill="#CC0000" stroke="#CC0000" stroke-width="1"/><line x1="287" y1="149" x2="287" y2="158" stroke="#00AA00" stroke-width="1"/><rect x="286" y="153" width="3" height="4" fill="#00AA00" stroke="#00AA00" stroke-width="1"/><line x1="293" y1="149" x2="293" y2="162" stroke="#CC0000" stroke-width="1"/><rect x="292" y="153" width="3" height="5" fill="#CC0000" stroke="#CC0000" stroke-width="1"/><line x1="298" y1="152" x2="298" y2="168" stroke="#CC0000" stroke-width="1"/><rect x="297" y="158" width="3" height="7" fill="#CC0000" stroke="#CC0000" stroke-width="1"/><line x1="304" y1="159" x2="304" y2="175" stroke="#00AA00" stroke-width="1"/><rect x="303" y="162" width="3" height="3" fill="#00AA00" stroke="#00AA00" stroke-width="1"/><line x1="309" y1="162" x2="309" y2="178" stroke="#CC0000" stroke-width="1"/><rect x="308" y="162" width="3" height="5" fill="#CC0000" stroke="#CC0000" stroke-width="1"/><line x1="315" y1="162" x2="315" y2="186" stroke="#CC0000" stroke-width="1"/><rect x="314" y="167" width="3" height="17" fill="#CC0000" stroke="#CC0000" stroke-width="1"/><line x1="320" y1="181" x2="320" y2="205" stroke="#CC0000" stroke-width="1"/><rect x="319" y="185" width="3" height="5" fill="#CC0000" stroke="#CC0000" stroke-width="1"/><line x1="326" y1="188" x2="326" y2="195" stroke="#CC0000" stroke-width="1"/><rect x="325" y="190" width="3" height="1" fill="#CC0000" stroke="#CC0000" stroke-width="1"/><line x1="331" y1="179" x2="331" y2="191" stroke="#00AA00" stroke-width="1"/><rect x="330" y="184" width="3" height="7" fill="#00AA00" stroke="#00AA00" stroke-width="1"/><line x1="337" y1="175" x2="337" y2="189" stroke="#00AA00" stroke-width="1"/><rect x="336" y="178" width="3" height="6" fill="#00AA00" stroke="#00AA00" stroke-width="1"/><line x1="342" y1="178" x2="342" y2="186" stroke="#CC0000" stroke-width="1"/><rect x="341" y="178" width="3" height="4" fill="#CC0000" stroke="#CC0000" stroke-width="1"/><line x1="348" y1="170" x2="348" y2="185" stroke="#00AA00" stroke-width="1"/><rect x="347" y="171" width="3" height="11" fill="#00AA00" stroke="#00AA00" stroke-width="1"/><line x1="353" y1="166" x2="353" y2="172" stroke="#00AA00" stroke-width="1"/><rect x="352" y="168" width="3" height="3" fill="#00AA00" stroke="#00AA00" stroke-width="1"/><line x1="359" y1="161" x2="359" y2="172" stroke="#CC0000" stroke-width="1"/><rect x="358" y="168" width="3" height="1" fill="#CC0000" stroke="#CC0000" stroke-width="1"/><line x1="364" y1="168" x2="364" y2="172" stroke="#CC0000" stroke-width="1"/><rect x="363" y="169" width="3" height="1" fill="#CC0000" stroke="#CC0000" stroke-width="1"/><line x1="370" y1="165" x2="370" y2="171" stroke="#CC0000" stroke-width="1"/><rect x="369" y="169" width="3" height="2" fill="#CC0000" stroke="#CC0000" stroke-width="1"/><line x1="375" y1="171" x2="375" y2="183" stroke="#CC0000" stroke-width="1"/><rect x="374" y="171" width="3" height="11" fill="#CC0000" stroke="#CC0000" stroke-width="1"/><text x="45" y="50" text-anchor="end" font-size="10" fill="black">$126K</text><text x="45" y="205" text-anchor="end" font-size="10" fill="black">$81K</text><rect x="410" y="10" width="380" height="215" fill="white" stroke="black" stroke-width="2"/><text x="415" y="30" text-anchor="start" font-size="14" fill="black">$619.25</text><text x="600" y="30" text-anchor="middle" font-size="18" font-weight="bold" fill="black">QQQ</text><text x="785" y="30" text-anchor="end" font-size="12" fill="green">+43.19 (+7.5%)</text><line x1="450" y1="45" x2="780" y2="45" stroke="#cccccc" stroke-width="1"/><line x1="450" y1="85" x2="780" y2="85" stroke="#cccccc" stroke-width="1"/><line x1="450" y1="125" x2="780" y2="125" stroke="#cccccc" stroke-width="1"/><line x1="450" y1="165" x2="780" y2="165" stroke="#cccccc" stroke-width="1"/><line x1="450" y1="205" x2="780" y2="205" stroke="#cccccc" stroke-width="1"/><line x1="451" y1="182" x2="451" y2="205" stroke="#CC0000" stroke-width="1"/><rect x="450" y="184" width="3" height="10" fill="#CC0000" stroke="#CC0000" stroke-width="1"/><line x1="456" y1="183" x2="456" y2="190" stroke="#00AA00" stroke-width="1"/><rect x="455" y="188" width="3" height="1" fill="#00AA00" stroke="#00AA00" stroke-width="1"/><line x1="462" y1="183" x2="462" y2="192" stroke="#00AA00" stroke-width="1"/><rect x="461" y="184" width="3" height="2" fill="#00AA00" stroke="#00AA00" stroke-width="1"/><line x1="467" y1="176" x2="467" y2="188" stroke="#CC0000" stroke-width="1"/><rect x="466" y="176" width="3" height="7" fill="#CC0000" stroke="#CC0000" stroke-width="1"/><line x1="473" y1="173" x2="473" y2="181" stroke="#00AA00" stroke-width="1"/><rect x="472" y="175" width="3" height="2" fill="#00AA00" stroke="#00AA00" stroke-width="1"/><line x1="478" y1="166" x2="478" y2="175" stroke="#00AA00" stroke-width="1"/><rect x="477" y="169" width="3" height="3" fill="#00AA00" stroke="#00AA00" stroke-width="1"/><line x1="484" y1="156" x2="484" y2="165" stroke="#00AA00" stroke-width="1"/><rect x="483" y="156" width="3" height="8" fill="#00AA00" stroke="#00AA00" stroke-width="1"/><line x1="489" y1="153" x2="489" y2="159" stroke="#CC0000" stroke-width="1"/><rect x="488" y="154" width="3" height="3" fill="#CC0000" stroke="#CC0000" stroke-width="1"/><line x1="495" y1="156" x2="495" y2="174" stroke="#CC0000" stroke-width="1"/><rect x="494" y="158" width="3" height="2" fill="#CC0000" stroke="#CC0000" stroke-width="1"/><line x1="500" y1="140" x2="500" y2="153" stroke="#00AA00" stroke-width="1"/><rect x="499" y="147" width="3" height="1" fill="#00AA00" stroke="#00AA00" stroke-width="1"/><line x1="506" y1="136" x2="506" y2="146" stroke="#00AA00" stroke-width="1"/><rect x="505" y="138" width="3" height="4" fill="#00AA00" stroke="#00AA00" stroke-width="1"/><line x1="511" y1="129" x2="511" y2="142" stroke="#00AA00" stroke-width="1"/><rect x="510" y="131" width="3" height="10" fill="#00AA00" stroke="#00AA00" stroke-width="1"/><line x1="517" y1="130" x2="517" y2="143" stroke="#CC0000" stroke-width="1"/><rect x="516" y="130" width="3" height="10" fill="#CC0000" stroke="#CC0000" stroke-width="1"/><line x1="522" y1="136" x2="522" y2="152" stroke="#CC0000" stroke-width="1"/><rect x="521" y="137" width="3" height="8" fill="#CC0000" stroke="#CC0000" stroke-width="1"/><line x1="528" y1="148" x2="528" y2="164" stroke="#00AA00" stroke-width="1"/><rect x="527" y="152" width="3" height="3" fill="#00AA00" stroke="#00AA00" stroke-width="1"/><line x1="533" y1="145" x2="533" y2="158" stroke="#00AA00" stroke-width="1"/><rect x="532" y="146" width="3" height="4" fill="#00AA00" stroke="#00AA00" stroke-width="1"/><line x1="539" y1="131" x2="539" y2="142" stroke="#CC0000" stroke-width="1"/><rect x="538" y="138" width="3" height="1" fill="#CC0000" stroke="#CC0000" stroke-width="1"/><line x1="544" y1="134" x2="544" y2="145" stroke="#00AA00" stroke-width="1"/><rect x="543" y="135" width="3" height="5" fill="#00AA00" stroke="#00AA00" stroke-width="1"/><line x1="550" y1="127" x2="550" y2="145" stroke="#00AA00" stroke-width="1"/><rect x="549" y="128" width="3" height="15" fill="#00AA00" stroke="#00AA00" stroke-width="1"/><line x1="555" y1="118" x2="555" y2="129" stroke="#CC0000" stroke-width="1"/><rect x="554" y="119" width="3" height="3" fill="#CC0000" stroke="#CC0000" stroke-width="1"/><line x1="561" y1="118" x2="561" y2="133" stroke="#CC0000" stroke-width="1"/><rect x="560" y="120" width="3" height="8" fill="#CC0000" stroke="#CC0000" stroke-width="1"/><line x1="566" y1="113" x2="566" y2="121" stroke="#CC0000" stroke-width="1"/><rect x="565" y="115" width="3" height="2" fill="#CC0000" stroke="#CC0000" stroke-width="1"/><line x1="572" y1="112" x2="572" y2="129" stroke="#CC0000" stroke-width="1"/><rect x="571" y="114" width="3" height="11" fill="#CC0000" stroke="#CC0000" stroke-width="1"/><line x1="577" y1="107" x2="577" y2="123" stroke="#00AA00" stroke-width="1"/><rect x="576" y="108" width="3" height="15" fill="#00AA00" stroke="#00AA00" stroke-width="1"/><line x1="583" y1="108" x2="583" y2="118" stroke="#CC0000" stroke-width="1"/><rect x="582" y="108" width="3" height="2" fill="#CC0000" stroke="#CC0000" stroke-width="1"/><line x1="588" y1="104" x2="588" y2="163" stroke="#CC0000" stroke-width="1"/><rect x="587" y="108" width="3" height="54" fill="#CC0000" stroke="#CC0000" stroke-width="1"/><line x1="594" y1="129" x2="594" y2="143" stroke="#00AA00" stroke-width="1"/><rect x="593" y="131" width="3" height="6" fill="#00AA00" stroke="#00AA00" stroke-width="1"/><line x1="599" y1="129" x2="599" y2="160" stroke="#00AA00" stroke-width="1"/><rect x="598" y="141" width="3" height="6" fill="#00AA00" stroke="#00AA00" stroke-width="1"/><line x1="605" y1="120" x2="605" y2="146" stroke="#CC0000" stroke-width="1"/><rect x="604" y="126" width="3" height="5" fill="#CC0000" stroke="#CC0000" stroke-width="1"/><line x1="610" y1="116" x2="610" y2="147" stroke="#CC0000" stroke-width="1"/><rect x="609" y="123" width="3" height="13" fill="#CC0000" stroke="#CC0000" stroke-width="1"/><line x1="616" y1="122" x2="616" y2="145" stroke="#00AA00" stroke-width="1"/><rect x="615" y="126" width="3" height="15" fill="#00AA00" stroke="#00AA00" stroke-width="1"/><line x1="621" y1="105" x2="621" y2="119" stroke="#00AA00" stroke-width="1"/><rect x="620" y="108" width="3" height="10" fill="#00AA00" stroke="#00AA00" stroke-width="1"/><line x1="627" y1="105" x2="627" y2="113" stroke="#CC0000" stroke-width="1"/><rect x="626" y="107" width="3" height="1" fill="#CC0000" stroke="#CC0000" stroke-width="1"/><line x1="632" y1="108" x2="632" y2="137" stroke="#CC0000" stroke-width="1"/><rect x="631" y="109" width="3" height="14" fill="#CC0000" stroke="#CC0000" stroke-width="1"/><line x1="638" y1="108" x2="638" y2="125" stroke="#00AA00" stroke-width="1"/><rect x="637" y="110" width="3" height="14" fill="#00AA00" stroke="#00AA00" stroke-width="1"/><line x1="643" y1="91" x2="643" y2="99" stroke="#00AA00" stroke-width="1"/><rect x="642" y="94" width="3" height="3" fill="#00AA00" stroke="#00AA00" stroke-width="1"/><line x1="649" y1="66" x2="649" y2="77" stroke="#00AA00" stroke-width="1"/><rect x="648" y="67" width="3" height="9" fill="#00AA00" stroke="#00AA00" stroke-width="1"/><line x1="654" y1="51" x2="654" y2="64" stroke="#00AA00" stroke-width="1"/><rect x="653" y="55" width="3" height="7" fill="#00AA00" stroke="#00AA00" stroke-width="1"/><line x1="660" y1="45" x2="660" y2="62" stroke="#00AA00" stroke-width="1"/><rect x="659" y="49" width="3" height="1" fill="#00AA00" stroke="#00AA00" stroke-width="1"/><line x1="665" y1="54" x2="665" y2="73" stroke="#CC0000" stroke-width="1"/><rect x="664" y="57" width="3" height="15" fill="#CC0000" stroke="#CC0000" stroke-width="1"/><line x1="671" y1="52" x2="671" y2="71" stroke="#CC0000" stroke-width="1"/><rect x="670" y="52" width="3" height="13" fill="#CC0000" stroke="#CC0000" stroke-width="1"/><line x1="676" y1="48" x2="676" y2="63" stroke="#CC0000" stroke-width="1"/><rect x="675" y="50" width="3" height="8" fill="#CC0000" stroke="#CC0000" stroke-width="1"/><line x1="682" y1="70" x2="682" y2="91" stroke="#CC0000" stroke-width="1"/><rect x="681" y="79" width="3" height="10" fill="#CC0000" stroke="#CC0000" stroke-width="1"/><line x1="687" y1="71" x2="687" y2="94" stroke="#00AA00" stroke-width="1"/><rect x="686" y="79" width="3" height="12" fill="#00AA00" stroke="#00AA00" stroke-width="1"/><line x1="693" y1="82" x2="693" y2="111" stroke="#CC0000" stroke-width="1"/><rect x="692" y="83" width="3" height="24" fill="#CC0000" stroke="#CC0000" stroke-width="1"/><line x1="698" y1="112" x2="698" y2="139" stroke="#00AA00" stroke-width="1"/><rect x="697" y="112" width="3" height="4" fill="#00AA00" stroke="#00AA00" stroke-width="1"/><line x1="704" y1="77" x2="704" y2="95" stroke="#00AA00" stroke-width="1"/><rect x="703" y="79" width="3" height="11" fill="#00AA00" stroke="#00AA00" stroke-width="1"/><line x1="709" y1="80" x2="709" y2="93" stroke="#00AA00" stroke-width="1"/><rect x="708" y="83" width="3" height="3" fill="#00AA00" stroke="#00AA00" stroke-width="1"/><line x1="715" y1="75" x2="715" y2="92" stroke="#CC0000" stroke-width="1"/><rect x="714" y="75" width="3" height="9" fill="#CC0000" stroke="#CC0000" stroke-width="1"/><line x1="720" y1="92" x2="720" y2="121" stroke="#CC0000" stroke-width="1"/><rect x="719" y="93" width="3" height="22" fill="#CC0000" stroke="#CC0000" stroke-width="1"/><line x1="726" y1="103" x2="726" y2="143" stroke="#00AA00" stroke-width="1"/><rect x="725" y="114" width="3" height="23" fill="#00AA00" stroke="#00AA00" stroke-width="1"/><line x1="731" y1="105" x2="731" y2="136" stroke="#CC0000" stroke-width="1"/><rect x="730" y="121" width="3" height="6" fill="#CC0000" stroke="#CC0000" stroke-width="1"/><line x1="737" y1="130" x2="737" y2="157" stroke="#CC0000" stroke-width="1"/><rect x="736" y="137" width="3" height="8" fill="#CC0000" stroke="#CC0000" stroke-width="1"/><line x1="742" y1="121" x2="742" y2="149" stroke="#00AA00" stroke-width="1"/><rect x="741" y="136" width="3" height="7" fill="#00AA00" stroke="#00AA00" stroke-width="1"/><line x1="748" y1="102" x2="748" y2="173" stroke="#CC0000" stroke-width="1"/><rect x="747" y="108" width="3" height="63" fill="#CC0000" stroke="#CC0000" stroke-width="1"/><line x1="753" y1="143" x2="753" y2="183" stroke="#00AA00" stroke-width="1"/><rect x="752" y="160" width="3" height="7" fill="#00AA00" stroke="#00AA00" stroke-width="1"/><line x1="759" y1="120" x2="759" y2="148" stroke="#00AA00" stroke-width="1"/><rect x="758" y="123" width="3" height="24" fill="#00AA00" stroke="#00AA00" stroke-width="1"/><line x1="764" y1="111" x2="764" y2="142" stroke="#00AA00" stroke-width="1"/><rect x="763" y="114" width="3" height="13" fill="#00AA00" stroke="#00AA00" stroke-width="1"/><line x1="770" y1="96" x2="770" y2="111" stroke="#00AA00" stroke-width="1"/><rect x="769" y="101" width="3" height="4" fill="#00AA00" stroke="#00AA00" stroke-width="1"/><line x1="775" y1="89" x2="775" y2="98" stroke="#00AA00" stroke-width="1"/><rect x="774" y="89" width="3" height="8" fill="#00AA00" stroke="#00AA00" stroke-width="1"/><text x="445" y="50" text-anchor="end" font-size="10" fill="black">$637</text><text x="445" y="205" text-anchor="end" font-size="10" fill="black">$572</text><rect x="10" y="235" width="380" height="215" fill="white" stroke="black" stroke-width="2"/><text x="15" y="255" text-anchor="start" font-size="14" fill="black">$49.30</text><text x="200" y="255" text-anchor="middle" font-size="18" font-weight="bold" fill="black">IONQ</text><text x="385" y="255" text-anchor="end" font-size="12" fill="green">+7.50 (+17.9%)</text><line x1="50" y1="270" x2="380" y2="270" stroke="#cccccc" stroke-width="1"/><line x1="50" y1="310" x2="380" y2="310" stroke="#cccccc" stroke-width="1"/><line x1="50" y1="350" x2="380" y2="350" stroke="#cccccc" stroke-width="1"/><line x1="50" y1="390" x2="380" y2="390" stroke="#cccccc" stroke-width="1"/><line x1="50" y1="430" x2="380" y2="430" stroke="#cccccc" stroke-width="1"/><line x1="51" y1="414" x2="51" y2="422" stroke="#CC0000" stroke-width="1"/><rect x="50" y="415" width="3" height="2" fill="#CC0000" stroke="#CC0000" stroke-width="1"/><line x1="56" y1="415" x2="56" y2="422" stroke="#CC0000" stroke-width="1"/><rect x="55" y="416" width="3" height="4" fill="#CC0000" stroke="#CC0000" stroke-width="1"/><line x1="62" y1="409" x2="62" y2="420" stroke="#00AA00" stroke-width="1"/><rect x="61" y="410" width="3" height="9" fill="#00AA00" stroke="#00AA00" stroke-width="1"/><line x1="67" y1="406" x2="67" y2="411" stroke="#CC0000" stroke-width="1"/><rect x="66" y="409" width="3" height="1" fill="#CC0000" stroke="#CC0000" stroke-width="1"/><line x1="73" y1="399" x2="73" y2="412" stroke="#00AA00" stroke-width="1"/><rect x="72" y="399" width="3" height="10" fill="#00AA00" stroke="#00AA00" stroke-width="1"/><line x1="78" y1="369" x2="78" y2="399" stroke="#00AA00" stroke-width="1"/><rect x="77" y="370" width="3" height="29" fill="#00AA00" stroke="#00AA00" stroke-width="1"/><line x1="84" y1="355" x2="84" y2="369" stroke="#00AA00" stroke-width="1"/><rect x="83" y="358" width="3" height="8" fill="#00AA00" stroke="#00AA00" stroke-width="1"/><line x1="89" y1="345" x2="89" y2="365" stroke="#00AA00" stroke-width="1"/><rect x="88" y="347" width="3" height="12" fill="#00AA00" stroke="#00AA00" stroke-width="1"/><line x1="95" y1="333" x2="95" y2="351" stroke="#00AA00" stroke-width="1"/><rect x="94" y="336" width="3" height="8" fill="#00AA00" stroke="#00AA00" stroke-width="1"/><line x1="100" y1="319" x2="100" y2="336" stroke="#CC0000" stroke-width="1"/><rect x="99" y="326" width="3" height="6" fill="#CC0000" stroke="#CC0000" stroke-width="1"/><line x1="106" y1="316" x2="106" y2="336" stroke="#00AA00" stroke-width="1"/><rect x="105" y="319" width="3" height="16" fill="#00AA00" stroke="#00AA00" stroke-width="1"/><line x1="111" y1="310" x2="111" y2="334" stroke="#00AA00" stroke-width="1"/><rect x="110" y="314" width="3" height="13" fill="#00AA00" stroke="#00AA00" stroke-width="1"/><line x1="117" y1="300" x2="117" y2="316" stroke="#00AA00" stroke-width="1"/><rect x="116" y="303" width="3" height="4" fill="#00AA00" stroke="#00AA00" stroke-width="1"/><line x1="122" y1="300" x2="122" y2="317" stroke="#CC0000" stroke-width="1"/><rect x="121" y="303" width="3" height="4" fill="#CC0000" stroke="#CC0000" stroke-width="1"/><line x1="128" y1="313" x2="128" y2="331" stroke="#CC0000" stroke-width="1"/><rect x="127" y="317" width="3" height="6" fill="#CC0000" stroke="#CC0000" stroke-width="1"/><line x1="133" y1="319" x2="133" y2="337" stroke="#CC0000" stroke-width="1"/><rect x="132" y="326" width="3" height="4" fill="#CC0000" stroke="#CC0000" stroke-width="1"/><line x1="139" y1="325" x2="139" y2="344" stroke="#CC0000" stroke-width="1"/><rect x="138" y="326" width="3" height="14" fill="#CC0000" stroke="#CC0000" stroke-width="1"/><line x1="144" y1="338" x2="144" y2="353" stroke="#CC0000" stroke-width="1"/><rect x="143" y="343" width="3" height="7" fill="#CC0000" stroke="#CC0000" stroke-width="1"/><line x1="150" y1="338" x2="150" y2="355" stroke="#00AA00" stroke-width="1"/><rect x="149" y="344" width="3" height="6" fill="#00AA00" stroke="#00AA00" stroke-width="1"/><line x1="155" y1="322" x2="155" y2="340" stroke="#00AA00" stroke-width="1"/><rect x="154" y="322" width="3" height="17" fill="#00AA00" stroke="#00AA00" stroke-width="1"/><line x1="161" y1="308" x2="161" y2="326" stroke="#00AA00" stroke-width="1"/><rect x="160" y="309" width="3" height="10" fill="#00AA00" stroke="#00AA00" stroke-width="1"/><line x1="166" y1="289" x2="166" y2="314" stroke="#00AA00" stroke-width="1"/><rect x="165" y="290" width="3" height="24" fill="#00AA00" stroke="#00AA00" stroke-width="1"/><line x1="172" y1="276" x2="172" y2="302" stroke="#CC0000" stroke-width="1"/><rect x="171" y="283" width="3" height="6" fill="#CC0000" stroke="#CC0000" stroke-width="1"/><line x1="177" y1="278" x2="177" y2="312" stroke="#CC0000" stroke-width="1"/><rect x="176" y="290" width="3" height="16" fill="#CC0000" stroke="#CC0000" stroke-width="1"/><line x1="183" y1="293" x2="183" y2="308" stroke="#00AA00" stroke-width="1"/><rect x="182" y="295" width="3" height="9" fill="#00AA00" stroke="#00AA00" stroke-width="1"/><line x1="188" y1="295" x2="188" y2="319" stroke="#CC0000" stroke-width="1"/><rect x="187" y="297" width="3" height="21" fill="#CC0000" stroke="#CC0000" stroke-width="1"/><line x1="194" y1="270" x2="194" y2="311" stroke="#00AA00" stroke-width="1"/><rect x="193" y="279" width="3" height="28" fill="#00AA00" stroke="#00AA00" stroke-width="1"/><line x1="199" y1="283" x2="199" y2="300" stroke="#CC0000" stroke-width="1"/><rect x="198" y="287" width="3" height="8" fill="#CC0000" stroke="#CC0000" stroke-width="1"/><line x1="205" y1="286" x2="205" y2="318" stroke="#CC0000" stroke-width="1"/><rect x="204" y="287" width="3" height="25" fill="#CC0000" stroke="#CC0000" stroke-width="1"/><line x1="210" y1="307" x2="210" y2="336" stroke="#CC0000" stroke-width="1"/><rect x="209" y="307" width="3" height="29" fill="#CC0000" stroke="#CC0000" stroke-width="1"/><line x1="216" y1="335" x2="216" y2="351" stroke="#CC0000" stroke-width="1"/><rect x="215" y="336" width="3" height="9" fill="#CC0000" stroke="#CC0000" stroke-width="1"/><line x1="221" y1="336" x2="221" y2="360" stroke="#CC0000" stroke-width="1"/><rect x="220" y="337" width="3" height="18" fill="#CC0000" stroke="#CC0000" stroke-width="1"/><line x1="227" y1="352" x2="227" y2="365" stroke="#CC0000" stroke-width="1"/><rect x="226" y="354" width="3" height="3" fill="#CC0000" stroke="#CC0000" stroke-width="1"/><line x1="232" y1="357" x2="232" y2="382" stroke="#CC0000" stroke-width="1"/><rect x="231" y="361" width="3" height="10" fill="#CC0000" stroke="#CC0000" stroke-width="1"/><line x1="238" y1="345" x2="238" y2="365" stroke="#CC0000" stroke-width="1"/><rect x="237" y="351" width="3" height="6" fill="#CC0000" stroke="#CC0000" stroke-width="1"/><line x1="243" y1="341" x2="243" y2="355" stroke="#CC0000" stroke-width="1"/><rect x="242" y="348" width="3" height="6" fill="#CC0000" stroke="#CC0000" stroke-width="1"/><line x1="249" y1="336" x2="249" y2="347" stroke="#CC0000" stroke-width="1"/><rect x="248" y="345" width="3" height="1" fill="#CC0000" stroke="#CC0000" stroke-width="1"/><line x1="254" y1="339" x2="254" y2="365" stroke="#CC0000" stroke-width="1"/><rect x="253" y="345" width="3" height="20" fill="#CC0000" stroke="#CC0000" stroke-width="1"/><line x1="260" y1="348" x2="260" y2="362" stroke="#00AA00" stroke-width="1"/><rect x="259" y="351" width="3" height="8" fill="#00AA00" stroke="#00AA00" stroke-width="1"/><line x1="265" y1="349" x2="265" y2="361" stroke="#00AA00" stroke-width="1"/><rect x="264" y="354" width="3" height="3" fill="#00AA00" stroke="#00AA00" stroke-width="1"/><line x1="271" y1="345" x2="271" y2="355" stroke="#00AA00" stroke-width="1"/><rect x="270" y="347" width="3" height="5" fill="#00AA00" stroke="#00AA00" stroke-width="1"/><line x1="276" y1="346" x2="276" y2="367" stroke="#CC0000" stroke-width="1"/><rect x="275" y="347" width="3" height="14" fill="#CC0000" stroke="#CC0000" stroke-width="1"/><line x1="282" y1="365" x2="282" y2="379" stroke="#CC0000" stroke-width="1"/><rect x="281" y="370" width="3" height="8" fill="#CC0000" stroke="#CC0000" stroke-width="1"/><line x1="287" y1="367" x2="287" y2="379" stroke="#00AA00" stroke-width="1"/><rect x="286" y="371" width="3" height="1" fill="#00AA00" stroke="#00AA00" stroke-width="1"/><line x1="293" y1="358" x2="293" y2="375" stroke="#00AA00" stroke-width="1"/><rect x="292" y="364" width="3" height="1" fill="#00AA00" stroke="#00AA00" stroke-width="1"/><line x1="298" y1="357" x2="298" y2="386" stroke="#00AA00" stroke-width="1"/><rect x="297" y="358" width="3" height="15" fill="#00AA00" stroke="#00AA00" stroke-width="1"/><line x1="304" y1="358" x2="304" y2="373" stroke="#CC0000" stroke-width="1"/><rect x="303" y="360" width="3" height="11" fill="#CC0000" stroke="#CC0000" stroke-width="1"/><line x1="309" y1="369" x2="309" y2="377" stroke="#CC0000" stroke-width="1"/><rect x="308" y="374" width="3" height="1" fill="#CC0000" stroke="#CC0000" stroke-width="1"/><line x1="315" y1="370" x2="315" y2="390" stroke="#CC0000" stroke-width="1"/><rect x="314" y="373" width="3" height="14" fill="#CC0000" stroke="#CC0000" stroke-width="1"/><line x1="320" y1="390" x2="320" y2="409" stroke="#CC0000" stroke-width="1"/><rect x="319" y="391" width="3" height="14" fill="#CC0000" stroke="#CC0000" stroke-width="1"/><line x1="326" y1="394" x2="326" y2="414" stroke="#00AA00" stroke-width="1"/><rect x="325" y="399" width="3" height="14" fill="#00AA00" stroke="#00AA00" stroke-width="1"/><line x1="331" y1="392" x2="331" y2="403" stroke="#00AA00" stroke-width="1"/><rect x="330" y="397" width="3" height="4" fill="#00AA00" stroke="#00AA00" stroke-width="1"/><line x1="337" y1="388" x2="337" y2="399" stroke="#00AA00" stroke-width="1"/><rect x="336" y="392" width="3" height="7" fill="#00AA00" stroke="#00AA00" stroke-width="1"/><line x1="342" y1="387" x2="342" y2="398" stroke="#CC0000" stroke-width="1"/><rect x="341" y="392" width="3" height="5" fill="#CC0000" stroke="#CC0000" stroke-width="1"/><line x1="348" y1="391" x2="348" y2="421" stroke="#CC0000" stroke-width="1"/><rect x="347" y="394" width="3" height="26" fill="#CC0000" stroke="#CC0000" stroke-width="1"/><line x1="353" y1="414" x2="353" y2="430" stroke="#CC0000" stroke-width="1"/><rect x="352" y="415" width="3" height="3" fill="#CC0000" stroke="#CC0000" stroke-width="1"/><line x1="359" y1="398" x2="359" y2="415" stroke="#00AA00" stroke-width="1"/><rect x="358" y="400" width="3" height="14" fill="#00AA00" stroke="#00AA00" stroke-width="1"/><line x1="364" y1="397" x2="364" y2="409" stroke="#00AA00" stroke-width="1"/><rect x="363" y="399" width="3" height="2" fill="#00AA00" stroke="#00AA00" stroke-width="1"/><line x1="370" y1="395" x2="370" y2="403" stroke="#CC0000" stroke-width="1"/><rect x="369" y="398" width="3" height="2" fill="#CC0000" stroke="#CC0000" stroke-width="1"/><line x1="375" y1="390" x2="375" y2="398" stroke="#00AA00" stroke-width="1"/><rect x="374" y="392" width="3" height="5" fill="#00AA00" stroke="#00AA00" stroke-width="1"/><text x="45" y="275" text-anchor="end" font-size="10" fill="black">$85</text><text x="45" y="430" text-anchor="end" font-size="10" fill="black">$38</text><rect x="410" y="235" width="380" height="215" fill="white" stroke="black" stroke-width="2"/><text x="415" y="255" text-anchor="start" font-size="14" fill="black">$430.17</text><text x="600" y="255" text-anchor="middle" font-size="18" font-weight="bold" fill="black">TSLA</text><text x="785" y="255" text-anchor="end" font-size="12" fill="green">+79.33 (+22.6%)</text><line x1="450" y1="270" x2="780" y2="270" stroke="#cccccc" stroke-width="1"/><line x1="450" y1="310" x2="780" y2="310" stroke="#cccccc" stroke-width="1"/><line x1="450" y1="350" x2="780" y2="350" stroke="#cccccc" stroke-width="1"/><line x1="450" y1="390" x2="780" y2="390" stroke="#cccccc" stroke-width="1"/><line x1="450" y1="430" x2="780" y2="430" stroke="#cccccc" stroke-width="1"/><line x1="451" y1="416" x2="451" y2="429" stroke="#00AA00" stroke-width="1"/><rect x="450" y="422" width="3" height="3" fill="#00AA00" stroke="#00AA00" stroke-width="1"/><line x1="456" y1="413" x2="456" y2="429" stroke="#CC0000" stroke-width="1"/><rect x="455" y="417" width="3" height="10" fill="#CC0000" stroke="#CC0000" stroke-width="1"/><line x1="462" y1="422" x2="462" y2="430" stroke="#CC0000" stroke-width="1"/><rect x="461" y="425" width="3" height="2" fill="#CC0000" stroke="#CC0000" stroke-width="1"/><line x1="467" y1="415" x2="467" y2="428" stroke="#CC0000" stroke-width="1"/><rect x="466" y="422" width="3" height="4" fill="#CC0000" stroke="#CC0000" stroke-width="1"/><line x1="473" y1="400" x2="473" y2="426" stroke="#00AA00" stroke-width="1"/><rect x="472" y="400" width="3" height="23" fill="#00AA00" stroke="#00AA00" stroke-width="1"/><line x1="478" y1="366" x2="478" y2="398" stroke="#00AA00" stroke-width="1"/><rect x="477" y="366" width="3" height="31" fill="#00AA00" stroke="#00AA00" stroke-width="1"/><line x1="484" y1="330" x2="484" y2="359" stroke="#CC0000" stroke-width="1"/><rect x="483" y="333" width="3" height="16" fill="#CC0000" stroke="#CC0000" stroke-width="1"/><line x1="489" y1="333" x2="489" y2="347" stroke="#00AA00" stroke-width="1"/><rect x="488" y="335" width="3" height="9" fill="#00AA00" stroke="#00AA00" stroke-width="1"/><line x1="495" y1="327" x2="495" y2="350" stroke="#00AA00" stroke-width="1"/><rect x="494" y="330" width="3" height="12" fill="#00AA00" stroke="#00AA00" stroke-width="1"/><line x1="500" y1="322" x2="500" y2="341" stroke="#CC0000" stroke-width="1"/><rect x="499" y="326" width="3" height="15" fill="#CC0000" stroke="#CC0000" stroke-width="1"/><line x1="506" y1="325" x2="506" y2="335" stroke="#00AA00" stroke-width="1"/><rect x="505" y="329" width="3" height="6" fill="#00AA00" stroke="#00AA00" stroke-width="1"/><line x1="511" y1="306" x2="511" y2="326" stroke="#00AA00" stroke-width="1"/><rect x="510" y="319" width="3" height="4" fill="#00AA00" stroke="#00AA00" stroke-width="1"/><line x1="517" y1="311" x2="517" y2="332" stroke="#CC0000" stroke-width="1"/><rect x="516" y="312" width="3" height="18" fill="#CC0000" stroke="#CC0000" stroke-width="1"/><line x1="522" y1="307" x2="522" y2="326" stroke="#00AA00" stroke-width="1"/><rect x="521" y="309" width="3" height="16" fill="#00AA00" stroke="#00AA00" stroke-width="1"/><line x1="528" y1="318" x2="528" y2="338" stroke="#CC0000" stroke-width="1"/><rect x="527" y="318" width="3" height="15" fill="#CC0000" stroke="#CC0000" stroke-width="1"/><line x1="533" y1="312" x2="533" y2="336" stroke="#00AA00" stroke-width="1"/><rect x="532" y="312" width="3" height="15" fill="#00AA00" stroke="#00AA00" stroke-width="1"/><line x1="539" y1="299" x2="539" y2="313" stroke="#CC0000" stroke-width="1"/><rect x="538" y="307" width="3" height="1" fill="#CC0000" stroke="#CC0000" stroke-width="1"/><line x1="544" y1="306" x2="544" y2="321" stroke="#00AA00" stroke-width="1"/><rect x="543" y="307" width="3" height="3" fill="#00AA00" stroke="#00AA00" stroke-width="1"/><line x1="550" y1="285" x2="550" y2="311" stroke="#00AA00" stroke-width="1"/><rect x="549" y="288" width="3" height="20" fill="#00AA00" stroke="#00AA00" stroke-width="1"/><line x1="555" y1="275" x2="555" y2="318" stroke="#CC0000" stroke-width="1"/><rect x="554" y="275" width="3" height="42" fill="#CC0000" stroke="#CC0000" stroke-width="1"/><line x1="561" y1="304" x2="561" y2="341" stroke="#CC0000" stroke-width="1"/><rect x="560" y="308" width="3" height="17" fill="#CC0000" stroke="#CC0000" stroke-width="1"/><line x1="566" y1="296" x2="566" y2="316" stroke="#00AA00" stroke-width="1"/><rect x="565" y="296" width="3" height="15" fill="#00AA00" stroke="#00AA00" stroke-width="1"/><line x1="572" y1="297" x2="572" y2="322" stroke="#CC0000" stroke-width="1"/><rect x="571" y="303" width="3" height="18" fill="#CC0000" stroke="#CC0000" stroke-width="1"/><line x1="577" y1="311" x2="577" y2="330" stroke="#00AA00" stroke-width="1"/><rect x="576" y="314" width="3" height="1" fill="#00AA00" stroke="#00AA00" stroke-width="1"/><line x1="583" y1="317" x2="583" y2="329" stroke="#00AA00" stroke-width="1"/><rect x="582" y="318" width="3" height="4" fill="#00AA00" stroke="#00AA00" stroke-width="1"/><line x1="588" y1="309" x2="588" y2="347" stroke="#CC0000" stroke-width="1"/><rect x="587" y="317" width="3" height="28" fill="#CC0000" stroke="#CC0000" stroke-width="1"/><line x1="594" y1="316" x2="594" y2="337" stroke="#00AA00" stroke-width="1"/><rect x="593" y="317" width="3" height="16" fill="#00AA00" stroke="#00AA00" stroke-width="1"/><line x1="599" y1="319" x2="599" y2="340" stroke="#00AA00" stroke-width="1"/><rect x="598" y="326" width="3" height="3" fill="#00AA00" stroke="#00AA00" stroke-width="1"/><line x1="605" y1="312" x2="605" y2="329" stroke="#00AA00" stroke-width="1"/><rect x="604" y="318" width="3" height="1" fill="#00AA00" stroke="#00AA00" stroke-width="1"/><line x1="610" y1="313" x2="610" y2="335" stroke="#CC0000" stroke-width="1"/><rect x="609" y="319" width="3" height="7" fill="#CC0000" stroke="#CC0000" stroke-width="1"/><line x1="616" y1="311" x2="616" y2="332" stroke="#00AA00" stroke-width="1"/><rect x="615" y="313" width="3" height="17" fill="#00AA00" stroke="#00AA00" stroke-width="1"/><line x1="621" y1="300" x2="621" y2="312" stroke="#00AA00" stroke-width="1"/><rect x="620" y="303" width="3" height="5" fill="#00AA00" stroke="#00AA00" stroke-width="1"/><line x1="627" y1="301" x2="627" y2="310" stroke="#CC0000" stroke-width="1"/><rect x="626" y="305" width="3" height="4" fill="#CC0000" stroke="#CC0000" stroke-width="1"/><line x1="632" y1="306" x2="632" y2="326" stroke="#CC0000" stroke-width="1"/><rect x="631" y="308" width="3" height="6" fill="#CC0000" stroke="#CC0000" stroke-width="1"/><line x1="638" y1="301" x2="638" y2="344" stroke="#00AA00" stroke-width="1"/><rect x="637" y="301" width="3" height="36" fill="#00AA00" stroke="#00AA00" stroke-width="1"/><line x1="643" y1="298" x2="643" y2="324" stroke="#CC0000" stroke-width="1"/><rect x="642" y="304" width="3" height="16" fill="#CC0000" stroke="#CC0000" stroke-width="1"/><line x1="649" y1="288" x2="649" y2="314" stroke="#00AA00" stroke-width="1"/><rect x="648" y="297" width="3" height="15" fill="#00AA00" stroke="#00AA00" stroke-width="1"/><line x1="654" y1="279" x2="654" y2="298" stroke="#00AA00" stroke-width="1"/><rect x="653" y="287" width="3" height="7" fill="#00AA00" stroke="#00AA00" stroke-width="1"/><line x1="660" y1="281" x2="660" y2="297" stroke="#CC0000" stroke-width="1"/><rect x="659" y="285" width="3" height="1" fill="#CC0000" stroke="#CC0000" stroke-width="1"/><line x1="665" y1="294" x2="665" y2="313" stroke="#CC0000" stroke-width="1"/><rect x="664" y="299" width="3" height="13" fill="#CC0000" stroke="#CC0000" stroke-width="1"/><line x1="671" y1="290" x2="671" y2="308" stroke="#00AA00" stroke-width="1"/><rect x="670" y="292" width="3" height="12" fill="#00AA00" stroke="#00AA00" stroke-width="1"/><line x1="676" y1="270" x2="676" y2="295" stroke="#00AA00" stroke-width="1"/><rect x="675" y="278" width="3" height="15" fill="#00AA00" stroke="#00AA00" stroke-width="1"/><line x1="682" y1="288" x2="682" y2="308" stroke="#CC0000" stroke-width="1"/><rect x="681" y="295" width="3" height="12" fill="#CC0000" stroke="#CC0000" stroke-width="1"/><line x1="687" y1="280" x2="687" y2="311" stroke="#00AA00" stroke-width="1"/><rect x="686" y="285" width="3" height="13" fill="#00AA00" stroke="#00AA00" stroke-width="1"/><line x1="693" y1="279" x2="693" y2="318" stroke="#CC0000" stroke-width="1"/><rect x="692" y="285" width="3" height="20" fill="#CC0000" stroke="#CC0000" stroke-width="1"/><line x1="698" y1="313" x2="698" y2="335" stroke="#CC0000" stroke-width="1"/><rect x="697" y="315" width="3" height="10" fill="#CC0000" stroke="#CC0000" stroke-width="1"/><line x1="704" y1="300" x2="704" y2="321" stroke="#00AA00" stroke-width="1"/><rect x="703" y="306" width="3" height="7" fill="#00AA00" stroke="#00AA00" stroke-width="1"/><line x1="709" y1="309" x2="709" y2="322" stroke="#00AA00" stroke-width="1"/><rect x="708" y="313" width="3" height="1" fill="#00AA00" stroke="#00AA00" stroke-width="1"/><line x1="715" y1="309" x2="715" y2="329" stroke="#CC0000" stroke-width="1"/><rect x="714" y="310" width="3" height="14" fill="#CC0000" stroke="#CC0000" stroke-width="1"/><line x1="720" y1="331" x2="720" y2="366" stroke="#CC0000" stroke-width="1"/><rect x="719" y="333" width="3" height="26" fill="#CC0000" stroke="#CC0000" stroke-width="1"/><line x1="726" y1="347" x2="726" y2="383" stroke="#00AA00" stroke-width="1"/><rect x="725" y="356" width="3" height="22" fill="#00AA00" stroke="#00AA00" stroke-width="1"/><line x1="731" y1="332" x2="731" y2="363" stroke="#00AA00" stroke-width="1"/><rect x="730" y="351" width="3" height="12" fill="#00AA00" stroke="#00AA00" stroke-width="1"/><line x1="737" y1="351" x2="737" y2="369" stroke="#CC0000" stroke-width="1"/><rect x="736" y="355" width="3" height="5" fill="#CC0000" stroke="#CC0000" stroke-width="1"/><line x1="742" y1="347" x2="742" y2="363" stroke="#CC0000" stroke-width="1"/><rect x="741" y="354" width="3" height="3" fill="#CC0000" stroke="#CC0000" stroke-width="1"/><line x1="748" y1="326" x2="748" y2="368" stroke="#CC0000" stroke-width="1"/><rect x="747" y="344" width="3" height="23" fill="#CC0000" stroke="#CC0000" stroke-width="1"/><line x1="753" y1="358" x2="753" y2="381" stroke="#CC0000" stroke-width="1"/><rect x="752" y="359" width="3" height="13" fill="#CC0000" stroke="#CC0000" stroke-width="1"/><line x1="759" y1="335" x2="759" y2="360" stroke="#00AA00" stroke-width="1"/><rect x="758" y="340" width="3" height="19" fill="#00AA00" stroke="#00AA00" stroke-width="1"/><line x1="764" y1="336" x2="764" y2="354" stroke="#00AA00" stroke-width="1"/><rect x="763" y="338" width="3" height="6" fill="#00AA00" stroke="#00AA00" stroke-width="1"/><line x1="770" y1="328" x2="770" y2="341" stroke="#00AA00" stroke-width="1"/><rect x="769" y="329" width="3" height="3" fill="#00AA00" stroke="#00AA00" stroke-width="1"/><line x1="775" y1="321" x2="775" y2="329" stroke="#00AA00" stroke-width="1"/><rect x="774" y="324" width="3" height="5" fill="#00AA00" stroke="#00AA00" stroke-width="1"/><text x="445" y="275" text-anchor="end" font-size="10" fill="black">$474</text><text x="445" y="430" text-anchor="end" font-size="10" fill="black">$344</text><text x="10" y="470" font-size="12" fill="black">Last updated: 17:07:49</text><text x="790" y="470" text-anchor="end" font-size="12" fill="green">Battery: 80%</text></svg>